<svg width="32" height="32" viewBox="0 0 32 32" fill="none" xmlns="http://www.w3.org/2000/svg">
<path d="M25.1667 27.8732C22.485 29.9436 19.1813 31.0452 15.7937 30.9986C12.4061 30.952 9.13403 29.76 6.51028 27.6166C3.88653 25.4732 2.06565 22.5047 1.34413 19.1945C0.622606 15.8843 1.04295 12.4273 2.5367 9.38645C4.03046 6.34559 6.50964 3.89997 9.57058 2.4478C12.6315 0.995634 16.0939 0.622455 19.394 1.38903C22.6941 2.1556 25.6374 4.01677 27.7449 6.6695C29.8523 9.32222 30.9996 12.6102 31 15.9982C31 25.1648 21 25.1648 21 19.3315V9.33152" stroke="white" stroke-width="1.875" stroke-linecap="round" stroke-linejoin="round"/>
<path d="M21 15.998V13.498C21 11.198 18.7617 9.3313 16 9.3313C13.2383 9.3313 11 11.198 11 13.498V15.998M21 15.998V18.498C21 20.798 18.7617 22.6646 16 22.6646C13.2383 22.6646 11 20.798 11 18.498V15.998" stroke="white" stroke-width="1.875" stroke-linecap="round" stroke-linejoin="round"/>
</svg>
