<svg width="23" height="30" viewBox="0 0 23 30" fill="none" xmlns="http://www.w3.org/2000/svg">
<path d="M3.69486 0.798184L5.76994 0.173158C6.71455 -0.111824 7.73059 -0.043311 8.62838 0.365907C9.52618 0.775126 10.2444 1.49708 10.6489 2.397L11.9402 5.26962C12.2882 6.04348 12.3851 6.90686 12.2174 7.73861C12.0497 8.57036 11.6258 9.32874 11.0052 9.90731L8.74882 12.0112C8.72182 12.038 8.69906 12.0687 8.68132 12.1024C8.44506 12.5849 8.80382 13.8737 9.92762 15.8213C11.1952 18.0164 12.174 18.8839 12.6277 18.7502L15.5891 17.8439C16.4001 17.5962 17.2683 17.6086 18.072 17.8791C18.8756 18.1497 19.5745 18.665 20.0705 19.3527L21.9056 21.8941C22.4817 22.692 22.7486 23.672 22.6567 24.6519C22.5647 25.6318 22.1201 26.545 21.4056 27.2218L19.8268 28.7156C19.2778 29.2356 18.6111 29.6151 17.8836 29.8217C17.1561 30.0283 16.3895 30.0558 15.6491 29.9019C11.2527 28.9869 7.31376 25.4467 3.79861 19.359C0.282217 13.2675 -0.81408 8.07974 0.598479 3.81331C0.834934 3.09904 1.23985 2.45217 1.779 1.92738C2.31816 1.40258 2.97446 1.01528 3.69486 0.798184ZM4.23863 2.59326C3.80637 2.72345 3.41181 2.95579 3.08827 3.27062C2.76474 3.58545 2.52173 3.97354 2.3798 4.40208C1.16225 8.07849 2.14854 12.7487 5.42368 18.4214C8.69632 24.0904 12.244 27.278 16.0329 28.0656C16.4771 28.1578 16.9371 28.1411 17.3735 28.0171C17.81 27.893 18.2099 27.6652 18.5392 27.353L20.1168 25.8605C20.5017 25.4961 20.7412 25.0044 20.7909 24.4768C20.8405 23.9491 20.697 23.4214 20.3868 22.9916L18.5517 20.449C18.2846 20.0788 17.9084 19.8014 17.4758 19.6557C17.0432 19.5099 16.5758 19.5032 16.1391 19.6365L13.1703 20.5453C11.5277 21.034 9.98262 19.6652 8.30505 16.7576C6.88374 14.2975 6.39122 12.5199 6.99875 11.2786C7.11708 11.0369 7.27459 10.824 7.47127 10.6398L9.72761 8.53601C10.0619 8.22447 10.2903 7.81606 10.3806 7.36812C10.471 6.92017 10.4188 6.45517 10.2314 6.0384L8.93883 3.16703C8.72101 2.68234 8.33422 2.29349 7.85068 2.07312C7.36715 1.85274 6.81993 1.81591 6.31122 1.96948L4.23863 2.59326Z" fill="white"/>
</svg>
