<svg width="32" height="32" viewBox="0 0 32 32" fill="none" xmlns="http://www.w3.org/2000/svg">
<path d="M16 31C17.9698 31 19.9204 30.612 21.7403 29.8582C23.5601 29.1044 25.2137 27.9995 26.6066 26.6066C27.9995 25.2137 29.1044 23.5601 29.8582 21.7403C30.612 19.9204 31 17.9698 31 16C31 14.0302 30.612 12.0796 29.8582 10.2597C29.1044 8.43986 27.9995 6.78628 26.6066 5.3934C25.2137 4.00052 23.5601 2.89563 21.7403 2.14181C19.9204 1.38799 17.9698 1 16 1M16 31C14.0302 31 12.0796 30.612 10.2597 29.8582C8.43986 29.1044 6.78628 27.9995 5.3934 26.6066C4.00052 25.2137 2.89563 23.5601 2.14181 21.7403C1.38799 19.9204 1 17.9698 1 16C1 14.0302 1.38799 12.0796 2.14181 10.2597C2.89563 8.43986 4.00052 6.78628 5.3934 5.3934C6.78628 4.00052 8.43986 2.89563 10.2597 2.14181C12.0796 1.38799 14.0302 1 16 1M16 31C20.6017 31 22.5683 22.395 22.5683 16C22.5683 9.605 20.6017 1 16 1M16 31C11.3983 31 9.43167 22.395 9.43167 16C9.43167 9.605 11.3983 1 16 1M1.83333 11H30.1667M1.83333 21H30.1667" stroke="white" stroke-width="1.875" stroke-linecap="round" stroke-linejoin="round"/>
</svg>
