<svg width="39" height="30" viewBox="0 0 39 30" fill="none" xmlns="http://www.w3.org/2000/svg">
<path d="M3.46286 30C2.47571 30 1.65214 29.67 0.992143 29.01C0.332143 28.35 0.00142857 27.5257 0 26.5371V3.46286C0 2.47571 0.330714 1.65214 0.992143 0.992142C1.65357 0.332142 2.47643 0.00142857 3.46071 0H35.1107C36.0964 0 36.9193 0.330714 37.5793 0.992142C38.2393 1.65357 38.57 2.47714 38.5714 3.46286V26.5393C38.5714 27.525 38.2407 28.3486 37.5793 29.01C36.9179 29.6714 36.095 30.0014 35.1107 30H3.46286ZM19.2857 15.2486L2.14286 4.03929V26.5393C2.14286 26.9236 2.26643 27.2393 2.51357 27.4864C2.76071 27.7336 3.07714 27.8571 3.46286 27.8571H35.1107C35.495 27.8571 35.8107 27.7336 36.0579 27.4864C36.305 27.2393 36.4286 26.9229 36.4286 26.5371V4.03714L19.2857 15.2486ZM19.2857 12.8571L35.7686 2.14286H2.80286L19.2857 12.8571ZM2.14286 4.03929V2.14286V26.5393C2.14286 26.9236 2.26643 27.2393 2.51357 27.4864C2.76071 27.7336 3.07714 27.8571 3.46286 27.8571H2.14286V4.03929Z" fill="#FEFEFE"/>
</svg>
