<svg width="23" height="32" viewBox="0 0 23 32" fill="none" xmlns="http://www.w3.org/2000/svg">
<path d="M11.3851 1C5.65167 1 1 5.42738 1 10.8803C1 17.1546 7.92342 27.0977 10.4656 30.532C10.5711 30.677 10.7094 30.7949 10.8692 30.8763C11.0291 30.9576 11.2058 31 11.3851 31C11.5644 31 11.7412 30.9576 11.901 30.8763C12.0608 30.7949 12.1991 30.677 12.3046 30.532C14.8468 27.0991 21.7703 17.1597 21.7703 10.8803C21.7703 5.42738 17.1186 1 11.3851 1Z" stroke="white" stroke-width="1.875" stroke-linecap="round" stroke-linejoin="round"/>
<path d="M11.3851 14.8468C13.297 14.8468 14.8468 13.297 14.8468 11.3851C14.8468 9.47328 13.297 7.92342 11.3851 7.92342C9.47328 7.92342 7.92342 9.47328 7.92342 11.3851C7.92342 13.297 9.47328 14.8468 11.3851 14.8468Z" stroke="white" stroke-width="1.875" stroke-linecap="round" stroke-linejoin="round"/>
</svg>
